<svg width="400" height="400" viewBox="0 0 400 400" xmlns="http://www.w3.org/2000/svg">
  <!-- Enso brush stroke - organic path with variable width -->
  <!-- Using multiple overlapping strokes to simulate brush texture -->
  
  <!-- Shadow layer -->
  <path
    d="M 200,60 
       C 260,62 315,120 315,190
       C 315,260 260,338 200,338
       C 140,338 85,260 85,190
       C 85,120 140,62 180,64"
    fill="none"
    stroke="rgba(180, 140, 20, 0.2)"
    stroke-width="18"
    stroke-linecap="round"
    opacity="0.3"
  />
  
  <!-- Main stroke - thick -->
  <path
    d="M 200,58
       C 262,60 318,118 318,190
       C 318,262 262,340 200,340
       C 138,340 82,262 82,190
       C 82,118 138,60 178,62"
    fill="none"
    stroke="#d4a72c"
    stroke-width="16"
    stroke-linecap="round"
    opacity="0.9"
  />
  
  <!-- Mid stroke - adds depth -->
  <path
    d="M 200,60
       C 261,61 316,119 316,190
       C 316,261 261,338 200,338
       C 139,338 84,261 84,190
       C 84,119 139,61 179,63"
    fill="none"
    stroke="#fcd34d"
    stroke-width="14"
    stroke-linecap="round"
    opacity="0.95"
  />
  
  <!-- Highlight stroke - lighter, inner edge -->
  <path
    d="M 200,64
       C 258,65 312,121 312,190
       C 312,259 258,334 200,334
       C 142,334 88,259 88,190
       C 88,121 142,65 182,66"
    fill="none"
    stroke="#fde68a"
    stroke-width="8"
    stroke-linecap="round"
    opacity="0.6"
  />
</svg>
