<svg xmlns="http://www.w3.org/2000/svg" viewBox="0 0 1024 1024" fill="none" stroke="currentColor" stroke-width="22" stroke-linecap="round" stroke-linejoin="round">
  <circle cx="512" cy="512" r="360" />
  <circle cx="512" cy="512" r="320" />
  <circle cx="512" cy="512" r="280" />
  <circle cx="512" cy="512" r="240" />
  <circle cx="512" cy="512" r="200" />
  <circle cx="512" cy="512" r="160" />
  <circle cx="512" cy="512" r="120" />
  <circle cx="512" cy="512" r="60" />
  <path d="M 200 512 C 320 430 420 430 512 512 C 604 594 704 594 824 512" />
  <path d="M 512 200 C 594 320 594 420 512 512 C 430 604 430 704 512 824" />
  <path d="M 250 250 C 360 310 420 370 474 474 C 528 578 588 638 774 774" />
  <path d="M 774 250 C 664 310 604 370 550 474 C 496 578 436 638 250 774" />
</svg>