<svg xmlns="http://www.w3.org/2000/svg" viewBox="0 0 1024 1024" fill="none" stroke="currentColor" stroke-width="22" stroke-linecap="round" stroke-linejoin="round">
  <polygon points="512 192 789.12 352 789.12 672 512 832 234.88 672 234.88 352" stroke-width="19" />
  <g transform="translate(0 -3)">
    <polygon points="512 252 737.16 382 737.16 642 512 772 286.84 642 286.84 382" />
    <polygon points="512 312 685.2 412 685.2 612 512 712 338.8 612 338.8 412" />
    <polygon points="512 372 633.24 442 633.24 582 512 652 390.76 582 390.76 442" />
    <circle cx="512" cy="512" r="60" />
    <polygon points="512 292 321.5 642 702.5 642" />
    <polygon points="512 732 702.5 382 321.5 382" />
  </g>
</svg>