<svg width="1024" height="1024" viewBox="0 0 1024 1024" fill="none" xmlns="http://www.w3.org/2000/svg">
  <defs>
    <linearGradient id="sigilStroke" x1="0" y1="0" x2="1" y2="1">
      <stop offset="0%" stop-color="rgba(255,255,255,0.98)" />
      <stop offset="100%" stop-color="rgba(230,220,200,0.9)" />
    </linearGradient>
  </defs>
  <g stroke="url(#sigilStroke)" stroke-width="20" stroke-linecap="round" stroke-linejoin="round" fill="none">
    <!-- 16-point starburst -->
    <polygon points="512,132 560,380 768,220 620,420 872,392 660,492 896,572 652,552 820,760 580,600 620,852 520,620 512,892 504,620 404,852 444,600 204,760 372,552 128,572 364,492 152,392 404,420 256,220 464,380" opacity="0.85" />
    <!-- Inner diamond -->
    <polygon points="512,292 672,512 512,732 352,512" opacity="0.65" stroke-width="24" />
    <!-- Center circle -->
    <circle cx="512" cy="512" r="80" opacity="0.8" stroke-width="22" />
    <!-- Radiating lines -->
    <line x1="512" y1="132" x2="512" y2="892" opacity="0.35" stroke-width="14" />
    <line x1="132" y1="512" x2="892" y2="512" opacity="0.35" stroke-width="14" />
    <line x1="224" y1="224" x2="800" y2="800" opacity="0.3" stroke-width="14" />
    <line x1="800" y1="224" x2="224" y2="800" opacity="0.3" stroke-width="14" />
  </g>
</svg>
