<?xml version="1.0" encoding="iso-8859-1"?>
<!-- Uploaded to: SVG Repo, www.svgrepo.com, Generator: SVG Repo Mixer Tools -->
<svg height="800px" width="800px" version="1.1" id="Layer_1" xmlns="http://www.w3.org/2000/svg" xmlns:xlink="http://www.w3.org/1999/xlink" 
	 viewBox="0 0 512.001 512.001" xml:space="preserve">
<path style="fill:#EADAA9;" d="M290.001,186.74L290.001,186.74c-1.357,15.422-11.767,28.556-26.474,33.396l0,0
	c-4.888,1.609-10.162,1.609-15.05,0l0,0c-14.706-4.841-25.117-17.973-26.474-33.396l0,0"/>
<g>
	<polygon style="fill:#53BEF4;" points="285.34,491.211 287.76,504.085 256.006,504.085 224.241,504.085 226.661,491.211 
		229.801,474.467 256.006,474.467 282.179,474.467 282.201,474.467 	"/>
	<path style="fill:#53BEF4;" d="M249.586,420.334c3.924-1.831,6.421-3.096,6.421-3.096v57.229h-26.206l9.418-50.176
		C242.74,423.234,246.206,421.915,249.586,420.334z"/>
	<path style="fill:#53BEF4;" d="M272.782,424.291l9.418,50.176h-0.022h-26.173v-57.229c0,0,2.496,1.264,6.41,3.096
		C265.795,421.915,269.261,423.234,272.782,424.291z"/>
	<path style="fill:#53BEF4;" d="M168.963,290.255c-6.268-7.129-12.46-14.258-18.095-20.842c-6.987-8.176-13.135-15.523-17.496-21.06
		c4.971-6.693,10.236-12.721,15.654-18.139l25.344,30.468c-4.502,3.336-6.977,8.742-6.551,14.335L168.963,290.255z"/>
	<path style="fill:#53BEF4;" d="M343.049,290.244l1.145-15.228c0.414-5.592-2.06-10.999-6.562-14.335l25.344-30.468
		c5.418,5.418,10.694,11.446,15.664,18.139c-4.371,5.538-10.508,12.885-17.507,21.06
		C355.498,275.996,349.317,283.115,343.049,290.244z"/>
</g>
<path style="fill:#F4C653;" d="M310.238,221.013c0,0-23.764,21.911-30.457,64.086c-2.115,13.343-7.816,25.868-16.537,36.191
	c-4.927,5.832-7.238,8.285-7.238,8.285s-2.311-2.453-7.249-8.285c-8.721-10.323-14.422-22.848-16.537-36.191
	c-6.693-42.175-30.446-64.086-30.446-64.086c4.851-19.109,12.405-31.71,12.405-31.71c10.181-3.619,16.711-4.84,16.711-4.84h50.231
	c0,0,6.53,1.21,16.7,4.829v0.011C297.822,189.302,305.387,201.904,310.238,221.013z"/>
<g>
	<path style="fill:#F75252;" d="M362.976,230.213l-25.344,30.468l-2.998-2.224c-6.813-5.036-16.242-3.401-20.875,3.695
		c1.428-15.228-0.534-29.41-3.521-41.14c-4.851-19.109-12.416-31.71-12.416-31.71v-0.011
		C314.151,195.102,339.877,207.103,362.976,230.213z"/>
	<path style="fill:#F75252;" d="M214.18,189.302c0,0-7.554,12.601-12.405,31.71c-2.987,11.729-4.949,25.911-3.532,41.14
		c-4.622-7.096-14.062-8.732-20.875-3.695l-2.998,2.224l-25.344-30.468C172.124,207.103,197.85,195.102,214.18,189.302z"/>
</g>
<path style="fill:#D8C89A;" d="M310.238,221.013c2.987,11.729,4.949,25.911,3.521,41.14c-8.176,12.569-0.752,25.922-5.156,55.289
	c-0.327,2.169-0.469,4.36-0.425,6.53c0,0.011,0,0.022,0,0.033c-0.12,1.439-1.461,17.55-0.371,33.662l-34.229,9.069l-3.913,1.036
	c-8.95,2.376-18.368,2.376-27.328,0l-3.913-1.036l-34.229-9.069c1.101-16.111-0.24-32.234-0.36-33.662c0-0.011,0-0.022,0-0.044
	c0.044-2.169-0.098-4.349-0.425-6.519c-4.404-29.367,3.02-42.72-5.167-55.289c-1.417-15.228,0.545-29.41,3.532-41.14
	c0,0,23.753,21.911,30.446,64.086c2.115,13.343,7.816,25.868,16.537,36.191c4.938,5.832,7.249,8.285,7.249,8.285
	s2.311-2.453,7.238-8.285c8.721-10.323,14.422-22.848,16.537-36.191C286.474,242.923,310.238,221.013,310.238,221.013z"/>
<path style="fill:#F4C653;" d="M273.578,366.735c0.044,0.916,0.065,1.853,0.065,2.78c0,19.829-7.892,35.907-17.637,35.907
	c-9.745,0-17.638-16.079-17.638-35.907c0-0.927,0.011-1.864,0.055-2.78l3.913,1.036c8.96,2.376,18.379,2.376,27.328,0
	L273.578,366.735z"/>
<path style="fill:#53BEF4;" d="M272.782,424.291c-3.521-1.057-6.987-2.376-10.367-3.957c-3.913-1.831-6.41-3.096-6.41-3.096
	s-2.496,1.264-6.421,3.096c-3.379,1.581-6.846,2.9-10.367,3.957c-17.256,5.189-35.907,4.251-52.684-2.911
	c-13.681-5.843-25.181-9.833-34.784-12.525c0.916-0.044,30.108-1.602,45.151-22.183c4.513-6.181,6.508-17.594,7.293-29.007
	l34.229,9.069c-0.044,0.916-0.055,1.853-0.055,2.78c0,19.829,7.892,35.907,17.638,35.907s17.637-16.079,17.637-35.907
	c0-0.927-0.022-1.864-0.065-2.78l34.229-9.069c0.785,11.413,2.78,22.826,7.304,29.007c15.098,20.668,44.475,22.15,45.151,22.183
	c-9.604,2.693-21.104,6.682-34.784,12.525C308.701,428.542,290.038,429.48,272.782,424.291z"/>
<g>
	<path style="fill:#F4C653;" d="M203.835,324.004c0.12,1.428,1.461,17.55,0.36,33.662c-0.785,11.413-2.78,22.826-7.293,29.007
		c-15.043,20.581-44.235,22.14-45.151,22.183c-29.934-8.405-41.369-4.164-42.426-3.717l49.086-28.44
		c3.227-1.853,6.17-3.99,8.819-6.344c10.421-4.458,20.919-12.71,29.181-24.123C201.121,339.723,203.682,331.95,203.835,324.004z"/>
	<path style="fill:#F4C653;" d="M307.807,357.665c-1.09-16.111,0.251-32.223,0.371-33.662c0.142,7.936,2.703,15.719,7.413,22.227
		c8.263,11.413,18.76,19.665,29.181,24.123c2.66,2.355,5.603,4.491,8.819,6.344l49.097,28.44
		c-1.057-0.447-12.492-4.687-42.415,3.717c0,0,0,0-0.011,0c-0.676-0.033-30.054-1.515-45.151-22.183
		C310.586,380.492,308.592,369.078,307.807,357.665z"/>
	<path style="fill:#F4C653;" d="M415.692,412.954c30.282,18.226,27.383,63.039-4.993,77.21c-16.34,7.14-23.818,10.192-43.32,13.114
		c-48.247,7.238-82.029-12.067-82.029-12.067h-0.011l-3.139-16.744l-9.418-50.176c17.256,5.189,35.918,4.251,52.695-2.911
		c13.68-5.843,25.181-9.833,34.784-12.525c0.011,0,0.011,0,0.011,0c29.923-8.405,41.358-4.164,42.415-3.717
		c0.022,0.011,0.033,0.022,0.044,0.022c0.022,0.011,0.033,0.011,0.033,0.011L415.692,412.954z"/>
	<path style="fill:#F4C653;" d="M151.751,408.855c9.604,2.693,21.104,6.682,34.784,12.525c16.776,7.162,35.428,8.099,52.684,2.911
		l-9.418,50.176l-3.139,16.744h-0.011c0,0-33.771,19.305-82.029,12.067c-19.502-2.921-26.979-5.974-43.32-13.114
		c-32.375-14.171-35.264-58.984-4.993-77.21l12.939-7.783l0.033-0.011c0.011,0,0.022-0.011,0.044-0.022
		C110.382,404.691,121.817,400.451,151.751,408.855z"/>
</g>
<g>
	<path style="fill:#EADAA9;" d="M446.552,256.31c1.875,6.9,1.134,14.247-2.126,20.613c-10.617,20.799-36.616,68.185-62.582,88.002
		c1.668-2.235,3.041-4.905,4.033-8.012c4.993-15.566-0.501-36.343-7.565-53.741c0.654-0.338,26.206-13.43,37.324-45.98
		c-5.374-9.538-24.472-37.684-31.002-63.061c9.789-3.325,26.881-6.704,44.661,1.145C433.896,210.21,442.181,240.329,446.552,256.31z
		"/>
	<path style="fill:#EADAA9;" d="M378.313,303.172c7.064,17.398,12.558,38.175,7.565,53.741c-0.992,3.107-2.365,5.777-4.033,8.012
		l-0.011,0.011c-7.827,10.497-22.358,11.729-37.063,5.418c-10.421-4.458-20.919-12.71-29.181-24.123
		c-4.709-6.508-7.271-14.291-7.413-22.227c0-0.011,0-0.022,0-0.033c-0.044-2.169,0.098-4.36,0.425-6.53
		c4.404-29.367-3.02-42.72,5.156-55.289c4.633-7.096,14.062-8.732,20.875-3.695l2.998,2.224c4.502,3.336,6.977,8.742,6.562,14.335
		l-1.145,15.228c6.268-7.129,12.449-14.247,18.084-20.831C361.133,269.412,370.65,284.303,378.313,303.172z"/>
	<path style="fill:#EADAA9;" d="M203.835,323.96c0,0.022,0,0.033,0,0.044c-0.153,7.947-2.714,15.719-7.423,22.227
		c-8.263,11.413-18.76,19.665-29.181,24.123c-14.716,6.312-29.269,5.08-37.085-5.45c-1.668-2.235-3.03-4.894-4.022-7.99
		c-4.993-15.577,0.512-36.354,7.565-53.752c7.674-18.858,17.18-33.749,17.18-33.749c5.636,6.584,11.827,13.713,18.095,20.842
		l-1.145-15.239c-0.425-5.592,2.049-10.999,6.551-14.335l2.998-2.224c6.813-5.036,16.253-3.401,20.875,3.695
		c8.187,12.569,0.763,25.922,5.167,55.289C203.737,319.611,203.878,321.791,203.835,323.96z"/>
	<path style="fill:#EADAA9;" d="M126.123,356.913c0.992,3.096,2.355,5.756,4.022,7.99c-25.966-19.829-51.953-67.193-62.571-87.98
		c-3.259-6.366-4.001-13.713-2.115-20.613c4.36-15.981,12.645-46.1,17.245-61.034c17.779-7.849,34.872-4.469,44.672-1.145
		c-6.53,25.377-25.628,53.523-31.002,63.061c11.086,32.463,36.529,45.565,37.313,45.969
		C126.635,320.559,121.13,341.336,126.123,356.913z"/>
</g>
<path style="fill:#E2B44D;" d="M212.347,124.559c0,0,0,0-0.012-0.012c-0.748-0.881-30.894-36.72-14.632-66.794
	c7.141-13.209,18.867-19.759,29.711-22.968l29.32,38.368l28.228-38.368c10.845,3.209,22.57,9.759,29.711,22.968
	c16.261,30.073-13.884,65.913-14.632,66.794c-0.012,0.012-0.012,0.012-0.012,0.012"/>
<g>
	<path style="fill:#F4C653;" d="M297.572,130.555c3.003-7.298,4.681-15.501,4.681-24.163c0-30.423-20.713-55.092-46.25-55.092
		s-46.238,24.669-46.238,55.092c0,8.662,1.677,16.852,4.669,24.138"/>
	<path style="fill:#F4C653;" d="M242.059,53.846c-8.939-3.136-14.994-9.217-14.994-16.201c0-0.977,0.121-1.931,0.35-2.859
		c2.134-8.854,14.125-27.7,28.6-27.7c15.984,0,28.951,20.342,28.951,30.559c0,6.984-6.055,13.065-15.006,16.201"/>
</g>
<path style="fill:#EADAA9;" d="M298.228,140.181c0,30.424-18.903,55.088-42.221,55.088s-42.221-24.664-42.221-55.088
	s18.903-35.787,42.221-35.787S298.228,109.757,298.228,140.181z"/>
<path style="fill:#D8C89A;" d="M232.681,140.181c0-26.185,14.006-33.8,32.773-35.416c-3.039-0.262-6.198-0.372-9.448-0.372
	c-23.318,0-42.221,5.363-42.221,35.787s18.903,55.088,42.221,55.088c3.25,0,6.409-0.495,9.448-1.402
	C246.687,188.267,232.681,166.366,232.681,140.181z"/>
<path d="M386.916,369.948c26.018-20.361,51.107-64.894,63.817-89.794c4.064-7.947,5.006-17.076,2.651-25.71
	c-7.96-29.135-13.947-50.316-17.315-61.256c-0.604-1.964-2.032-3.569-3.912-4.398c-15.958-7.038-31.441-5.937-42.138-3.524
	c-0.755-5.079-0.759-9.827,0.306-13.967c0.976-3.79-1.307-7.652-5.097-8.627c-3.787-0.975-7.653,1.307-8.627,5.098
	c-7.008,27.25,17.213,67.063,28.853,86.196c0.87,1.431,1.678,2.759,2.382,3.933c-7.022,18.163-18.979,29.286-26.332,34.769
	c-4.406-9.754-8.882-17.816-11.662-22.554c6.055-7.131,10.883-12.973,14.355-17.376c1.982-2.513,2.033-6.041,0.126-8.611
	c-30.498-41.086-71.293-57.784-90.751-63.745c7.312-10.848,11.738-24.882,11.738-40.202c0-3.093-0.192-5.955-0.543-8.618
	c0.358-0.939,0.694-1.885,1.011-2.839c3.703-4.507,32.805-41.641,15.124-74.34c-6.357-11.761-16.859-20.435-30.49-25.264
	C285.963,16.124,272.815,0,256.013,0c-16.442,0-29.652,17.118-34.248,29.192c-13.536,4.842-23.97,13.488-30.297,25.192
	c-16.949,31.345,9.038,66.703,14.525,73.6c0.383,1.203,0.8,2.395,1.249,3.575c-0.351,2.664-0.544,5.528-0.544,8.623
	c0,15.319,4.426,29.352,11.737,40.2c-19.455,5.958-60.256,22.655-90.757,63.747c-1.908,2.569-1.855,6.098,0.126,8.611
	c3.47,4.4,8.298,10.241,14.355,17.375c-2.783,4.743-7.266,12.819-11.678,22.591c-7.333-5.432-19.254-16.497-26.317-34.804
	c0.704-1.175,1.512-2.503,2.383-3.934c11.64-19.133,35.859-58.945,28.853-86.196c-0.976-3.79-4.839-6.074-8.627-5.098
	c-3.79,0.975-6.073,4.837-5.098,8.627c1.065,4.14,1.062,8.889,0.306,13.967c-10.697-2.412-26.179-3.513-42.138,3.524
	c-1.881,0.83-3.308,2.434-3.913,4.4c-4.253,13.822-11.763,40.94-17.314,61.258c-2.355,8.631-1.413,17.761,2.648,25.702
	c12.711,24.904,37.8,69.436,63.82,89.799c3.631,4.574,8.406,7.869,14.114,9.692l-33.211,19.236
	c-0.137,0.071-0.258,0.164-0.389,0.242l-0.011-0.017l-12.931,7.782c-16.288,9.804-25.643,27.683-24.415,46.658
	c1.227,18.971,12.808,35.49,30.22,43.111c16.559,7.248,24.739,10.58,45.108,13.636c8.037,1.206,15.682,1.714,22.867,1.714
	c22.033-0.001,39.69-4.78,50.791-8.881c-0.27,1.963,0.283,3.956,1.556,5.489c1.346,1.622,3.344,2.561,5.453,2.561H256h31.762
	c2.108,0,4.107-0.939,5.453-2.561c1.272-1.533,1.826-3.525,1.557-5.487c11.101,4.101,28.757,8.88,50.791,8.88
	c7.183,0,14.832-0.508,22.867-1.714c20.369-3.054,28.548-6.388,45.11-13.636c17.412-7.621,28.992-24.14,30.22-43.109
	c1.229-18.975-8.128-36.852-24.415-46.658l-12.929-7.783l-0.012,0.02c-0.078-0.047-0.147-0.106-0.227-0.15l-33.375-19.329
	C378.51,377.818,383.285,374.522,386.916,369.948z M422.336,259.483c0.652-1.909,0.459-4.005-0.53-5.763
	c-1.033-1.839-2.452-4.168-4.247-7.118c-6.278-10.319-17.941-29.505-24.072-47.606c8.422-1.893,19.011-2.46,30.014,1.577
	c3.45,11.494,9.016,31.266,16.212,57.605c1.423,5.217,0.856,10.731-1.599,15.53c-7.601,14.891-24.532,46.144-43.288,68.482
	c-0.243-11.814-3.542-24.476-7.79-36.039C395.993,300.113,413.419,285.596,422.336,259.483z M355.745,264.807
	c-1.521,1.778-3.094,3.608-4.695,5.465c-0.536-3.577-1.884-6.956-3.947-9.896l16.221-19.503c2.138,2.356,4.241,4.813,6.297,7.385
	C365.972,252.743,361.325,258.285,355.745,264.807z M273.662,467.381h-10.576v-39.04c1.157,0.473,2.324,0.908,3.496,1.329
	L273.662,467.381z M175.675,251.173l-16.968-20.399c14.035-12.902,28.777-21.809,41.345-27.843
	c-4.345,11.374-8.891,27.537-9.326,46.042c-0.265-0.058-0.521-0.135-0.789-0.184C184.992,247.9,180.033,248.761,175.675,251.173z
	 M256.007,126.812c3.913,0,7.086-3.172,7.086-7.086v-8.027c20.548,1.37,28.047,9.349,28.047,28.482
	c0,26.468-15.761,48.003-35.134,48.003c-19.374,0-35.135-21.533-35.135-48.003c0-19.134,7.501-27.112,28.052-28.482v8.027
	C248.922,123.64,252.094,126.812,256.007,126.812z M302.789,286.734c0.308,8.097,0.658,17.275-1.198,29.655
	c-0.356,2.377-0.513,4.775-0.493,7.167c-0.267,3.049-1.211,15.163-0.685,28.737l-32.566,8.629c-7.75,2.054-15.945,2.054-23.695,0
	l-32.566-8.629c0.531-13.711-0.437-25.937-0.692-28.83c0.015-2.361-0.132-4.727-0.484-7.074c-1.857-12.38-1.508-21.559-1.199-29.656
	c0.376-9.855,0.702-18.449-4.034-26.804c-0.62-8-0.254-15.7,0.706-22.855c6.847,9.845,15.718,26.312,19.339,49.138
	c2.326,14.659,8.592,28.368,18.123,39.646c5.003,5.921,7.404,8.471,7.504,8.577c1.339,1.418,3.203,2.222,5.153,2.222
	c1.95,0,3.814-0.803,5.153-2.222c0.1-0.106,2.501-2.657,7.504-8.577c9.53-11.277,15.796-24.987,18.123-39.646
	c3.598-22.682,12.499-39.197,19.362-49.095c0.948,7.132,1.304,14.814,0.682,22.811C302.087,268.283,302.413,276.877,302.789,286.734
	z M256.001,398.338c-3.265,0-8.926-8.434-10.261-22.589c3.392,0.583,6.826,0.882,10.261,0.882c3.434,0,6.869-0.298,10.261-0.882
	C264.926,389.904,259.265,398.338,256.001,398.338z M261.309,213.405c-3.473,1.142-7.145,1.143-10.618,0
	c-9.612-3.165-16.952-10.644-20.085-19.956c7.423,5.649,16.115,8.906,25.399,8.906c9.28,0,17.967-3.254,25.388-8.897
	C278.258,202.766,270.921,210.242,261.309,213.405z M246.261,226.865c0.873,0.288,1.76,0.525,2.654,0.733v25.573
	c0,3.913,3.172,7.086,7.086,7.086s7.086-3.172,7.086-7.086v-25.573c0.894-0.207,1.781-0.445,2.654-0.733
	c13.727-4.518,24.267-15.111,28.906-28.338c2.168,4.54,5.176,11.639,7.699,20.466c-7.028,7.776-23.951,29.635-29.562,64.997
	c-1.921,12.104-7.09,23.418-14.95,32.72c-0.658,0.779-1.269,1.497-1.832,2.154c-0.564-0.657-1.174-1.375-1.832-2.154
	c-7.859-9.302-13.03-20.616-14.949-32.72c-5.605-35.325-22.497-57.174-29.539-64.972c2.521-8.815,5.52-15.921,7.683-20.472
	C222.004,211.766,232.54,222.349,246.261,226.865z M202.616,390.851c4.178-5.717,6.527-14.664,7.794-24.21l20.915,5.542
	c0.651,20.31,8.689,35.992,19.808,39.556c-1.082,0.53-2.641,1.283-4.542,2.173c-18.089,8.425-38.966,8.774-57.279,0.956
	c-4.2-1.793-8.2-3.414-12.023-4.889C186.161,406.308,195.64,400.398,202.616,390.851z M245.417,429.674
	c1.173-0.421,2.34-0.856,3.498-1.33v39.037h-10.577L245.417,429.674z M265.42,413.916c-1.907-0.892-3.469-1.647-4.552-2.177
	c11.119-3.563,19.157-19.245,19.808-39.556l20.915-5.542c1.267,9.546,3.616,18.492,7.794,24.21
	c6.973,9.543,16.448,15.462,25.316,19.132c-3.819,1.474-7.815,3.093-12.011,4.885C304.375,422.684,283.498,422.335,265.42,413.916z
	 M321.275,248.973c-0.435-18.505-4.982-34.669-9.326-46.042c12.569,6.034,27.311,14.94,41.345,27.842l-16.968,20.4
	c-4.359-2.412-9.32-3.272-14.262-2.383C321.797,248.838,321.54,248.916,321.275,248.973z M290.747,44.57
	c7.838,3.771,13.774,9.311,17.689,16.554c6.14,11.355,4.214,24.092,0.13,34.805c-2.597-17.778-11.69-33-24.318-42.237
	C287.242,51.022,289.461,47.928,290.747,44.57z M234.299,36.447c0.804-3.337,3.853-9.277,8.125-14.174
	c2.638-3.025,7.913-8.101,13.588-8.101c4.892,0,10.359,3.232,15.001,8.867c4.46,5.416,6.865,11.568,6.865,14.607
	c0,3.115-3.196,6.449-8.148,8.671c-4.383-1.364-8.982-2.101-13.73-2.101c-4.744,0-9.341,0.735-13.721,2.097
	c-4.942-2.223-8.132-5.554-8.132-8.667C234.147,37.255,234.194,36.875,234.299,36.447z M203.548,95.275
	c-3.911-10.571-5.636-23.018,0.385-34.151c3.867-7.152,9.7-12.648,17.392-16.416c1.293,3.302,3.493,6.344,6.442,8.977
	C215.295,62.808,206.27,77.774,203.548,95.275z M216.848,106.393c0-26.47,17.563-48.006,39.152-48.006
	c21.596,0,39.164,21.536,39.164,48.006c0,1.055-0.034,2.102-0.088,3.143c-11.645-12.224-30.196-12.226-39.072-12.226
	c-8.874,0-27.422,0.002-39.068,12.223C216.882,108.491,216.848,107.446,216.848,106.393z M148.677,240.875l16.223,19.502
	c-2.064,2.939-3.411,6.319-3.947,9.896c-1.602-1.857-3.176-3.689-4.695-5.465c-5.581-6.523-10.228-12.065-13.876-16.547
	C144.435,245.687,146.539,243.231,148.677,240.875z M73.884,273.702c-2.453-4.794-3.02-10.308-1.597-15.523
	c7.197-26.342,12.762-46.114,16.212-57.609c11.003-4.038,21.592-3.471,30.014-1.577c-6.132,18.102-17.794,37.287-24.072,47.607
	c-1.794,2.95-3.212,5.28-4.246,7.118c-0.989,1.758-1.182,3.855-0.53,5.763c8.916,26.113,26.343,40.632,35.3,46.667
	c-4.249,11.564-7.548,24.225-7.79,36.04C98.417,319.85,81.486,288.596,73.884,273.702z M132.873,354.75
	c-6.537-20.387,8.669-54.525,19.069-73.233c3.295,3.811,6.696,7.715,10.125,11.619l1.442,19.218l-20.202,3.821
	c-3.845,0.727-6.373,4.433-5.646,8.279c0.643,3.4,3.616,5.77,6.954,5.77c0.436,0,0.88-0.04,1.324-0.125l18.636-3.524l0.325,4.33
	c0.293,3.902,3.68,6.827,7.596,6.536c3.902-0.292,6.828-3.693,6.536-7.596l-4.153-55.363c-0.238-3.179,1.149-6.208,3.708-8.106
	l3-2.222c1.729-1.281,3.803-1.783,5.838-1.418c2,0.36,3.732,1.526,4.877,3.283c3.18,4.884,3.135,9.994,2.748,20.173
	c-0.316,8.288-0.709,18.603,1.345,32.297c1.237,8.253-0.848,16.847-5.723,23.58c-10.267,14.179-28.773,27.233-44.287,24.761
	C139.644,365.756,135.099,361.691,132.873,354.75z M161.951,382.84c3.163-1.825,27.457-17.325,35.203-26.19
	c-0.726,11.034-2.505,21.087-5.979,25.84c-11.549,15.804-33.665,18.731-38.698,19.2c-6.274-1.726-11.801-2.926-16.639-3.726
	L161.951,382.84z M145.674,496.272c-18.225-2.734-24.914-5.338-40.982-12.364c-12.432-5.436-21.182-17.159-22.265-30.685
	c-1.129-14.109,5.46-26.928,17.538-34.199l0.515-0.31c10.272-6.183,22.427-8.571,34.238-6.512
	c11.239,1.96,27.194,6.375,49.029,15.697c14.77,6.305,30.921,8.169,46.52,5.668l-1.202,6.406
	c-12.944-2.072-47.922-7.734-75.937-12.827c-38.674-7.029-64.008,18.643-65.068,19.739c-2.713,2.806-2.636,7.269,0.16,9.992
	c1.375,1.339,3.157,2.005,4.938,2.005c1.842,0,3.683-0.712,5.073-2.129c0.856-0.872,21.325-21.309,52.363-15.664
	c27.87,5.067,62.566,10.688,75.857,12.817l-6.114,32.566C211.64,490.578,183.309,501.917,145.674,496.272z M232.778,496.997
	l2.9-15.446h40.645l2.9,15.446H232.778z M411.519,418.714L411.519,418.714c11.628,6.999,18.8,19.75,18.131,33.305
	c-0.697,14.135-8.882,25.997-21.795,31.649c-16.466,7.207-23.098,9.839-41.529,12.604c-37.434,5.615-65.936-5.727-74.665-9.813
	l-6.111-32.552c13.291-2.129,47.988-7.75,75.857-12.817c30.963-5.631,51.406,14.692,52.355,15.657
	c1.389,1.431,3.235,2.15,5.084,2.15c1.772,0,3.548-0.662,4.924-1.99c2.814-2.72,2.89-7.205,0.17-10.019
	c-1.061-1.097-26.396-26.769-65.069-19.739c-28.015,5.094-62.992,10.755-75.937,12.827l-1.199-6.389
	c4.439,0.711,8.921,1.074,13.406,1.074c11.27,0,22.548-2.25,33.112-6.76c21.831-9.321,37.784-13.737,49.023-15.697
	C389.09,410.143,401.246,412.53,411.519,418.714z M359.511,401.691c-5.049-0.45-27.062-3.297-38.685-19.203
	c-3.475-4.755-5.259-14.809-5.985-25.846c7.747,8.87,32.045,24.371,35.198,26.19l26.123,15.129
	C371.321,398.764,365.79,399.965,359.511,401.691z M365.616,366.831c-15.52,2.473-34.021-10.584-44.288-24.761
	c-4.875-6.732-6.961-15.327-5.723-23.58c2.055-13.695,1.66-24.009,1.345-32.297c-0.388-10.179-0.433-15.289,2.748-20.173
	c1.145-1.757,2.876-2.924,4.876-3.283c2.036-0.366,4.111,0.136,5.84,1.418l3,2.222c2.561,1.898,3.947,4.927,3.708,8.106
	l-4.152,55.364c-0.293,3.902,2.634,7.302,6.535,7.596c3.912,0.292,7.302-2.634,7.596-6.536l0.325-4.33l18.636,3.524
	c0.445,0.084,0.887,0.125,1.324,0.125c3.339,0,6.312-2.37,6.955-5.77c0.727-3.845-1.8-7.552-5.646-8.279l-20.202-3.821l1.441-19.217
	c3.425-3.901,6.826-7.805,10.126-11.62c10.4,18.708,25.607,52.846,19.07,73.233C376.903,361.691,372.356,365.756,365.616,366.831z"
	/>
</svg>